<svg aria-hidden="true" style="position: absolute; width: 0; height: 0; overflow: hidden;" version="1.1" xmlns="http://www.w3.org/2000/svg" xmlns:xlink="http://www.w3.org/1999/xlink">
<defs>
<!-- Logo -->
<symbol id="logo" viewBox="0 0 130 32">
<path d="M128.629 10.843c0 0 0.198-10.843-12.851-10.843-7.712 0-13.774 6.016-13.774 16 0 11.371 7.118 16 14.104 16 9.688 0 12.192-9.19 12.192-9.19h-1.186c0 0-2.704 4.166-8.699 4.166-4.944 0-9.36-4.827-9.36-12.034 0-9.125 3.427-12.298 6.987-12.298 7.446 0 6.195 8.198 6.195 8.198h6.392zM62 11.24c0-4.099-0.989-11.174-11.731-11.174-12.39 0-12.523 8.198-12.523 8.198l6.92-0.066c0 0-1.251-5.752 4.746-5.752 4.152 0 6.064 3.306 6.064 9.786v1.984c-1.912-1.192-4.352-1.984-7.184-1.984-7.514 0-12.259 4.099-12.259 9.917 0 6.016 4.482 9.786 10.48 9.786 5.272 0 8.368-3.702 10.016-6.744h0.33c0 3.24 0.726 6.083 0.726 6.083h5.403c0 0-0.989-2.91-0.989-7.869l0.002-12.165zM48.621 27.438c-3.56 0-6.328-2.248-6.328-5.752 0-3.571 2.704-6.216 7.053-6.216 3.098 0 5.075 0.992 6.722 2.579l0.066 4.032c-1.251 2.051-3.755 5.357-7.512 5.357zM0.971 0.794c0.856 15.272 0 30.544 0 30.544h6.789c0 0-0.858-15.272 0-30.544h-6.789zM90.602 0.794c0.858 15.272 0 30.544 0 30.544h6.789c0 0-0.858-15.272 0-30.544h-6.789zM34.714 4.76l-0.659-3.968h-22.605l-0.659 3.968c1.845-0.33 5.866-0.528 8.699-0.661 0.594 14.083-0.131 27.24-0.131 27.24h6.787c0 0-0.725-13.157-0.131-27.24 2.834 0.133 6.854 0.397 8.699 0.661zM75.114 28.165c-0.592-14.149 0.134-27.371 0.134-27.371h-6.789c0 0 0.856 15.272 0 30.544h18.123l0.659-5.818h-0.461c-3.824 2.512-10.083 2.645-11.664 2.645h-0.003z"></path>
</symbol>
<!-- Header icons -->
<symbol id="search" viewBox="0 0 32 32">
<path d="M31.008 27.231l-7.58-6.447c-0.784-0.705-1.622-1.029-2.299-0.998 1.789-2.096 2.87-4.815 2.87-7.787 0-6.627-5.373-12-12-12s-12 5.373-12 12 5.373 12 12 12c2.972 0 5.691-1.081 7.787-2.87-0.031 0.677 0.293 1.515 0.998 2.299l6.447 7.58c1.104 1.226 2.907 1.33 4.007 0.23s0.997-2.903-0.23-4.007zM12 20c-4.418 0-8-3.582-8-8s3.582-8 8-8 8 3.582 8 8-3.582 8-8 8z"></path>
</symbol>
<symbol id="shop-cart" viewBox="0 0 32 32">
<path d="M12 29c0 1.657-1.343 3-3 3s-3-1.343-3-3c0-1.657 1.343-3 3-3s3 1.343 3 3z"></path>
<path d="M32 29c0 1.657-1.343 3-3 3s-3-1.343-3-3c0-1.657 1.343-3 3-3s3 1.343 3 3z"></path>
<path d="M32 16v-12h-24c0-1.105-0.895-2-2-2h-6v2h4l1.502 12.877c-0.915 0.733-1.502 1.859-1.502 3.123 0 2.209 1.791 4 4 4h24v-2h-24c-1.105 0-2-0.895-2-2 0-0.007 0-0.014 0-0.020l26-3.98z"></path>
</symbol>
<!-- Brand's icons -->
<symbol id="brand-1" viewBox="0 0 126 32">
<path fill="#555" style="fill: var(--color1, #555)" d="M38.249 1.13c-6.834 0.050-12.426 7.646-12.426 14.272 0 6.974 4.1 15.48 12.426 15.452 8.328-0.026 12.652-9.184 12.652-15.452 0-6.92-5.816-14.32-12.652-14.272zM38.249 1.39c5.72 0 7.266 6.32 7.266 14.012 0 10.154-1.862 15.16-7.266 15.152-5.402-0.010-7.16-4.108-7.16-15.152 0-6.916 1.44-14.012 7.16-14.012zM53.157 15.59c-0.030-7.54 6.004-14.22 11.112-14.55 1.846-0.13 4.218 0.714 5.602 1.316 1.006 0.438 3.060-0.196 3.424-1.356h0.198v10.27h-0.2c0-0.438-1.9-9.972-9.024-9.972-5.26 0-5.768 9.25-5.768 14.292s0.154 15.022 6.292 15.022c2.974 0 5.176-1.3 5.746-3.932v-8.004h-2.496v-0.34h9.676v0.34h-2.386v11.7h-0.196c0 0-0.388-1.688-2.356-1.68-2.516 0.006-4.89 2.192-7.782 2.164-7.65-0.070-11.81-7.73-11.84-15.27h-0.002zM7.057 2.142h-3.014v-0.34h10.554v0.34h-2.644l7.54 20.48c2.36-7.26 4.184-12.628 6.644-20.48h-2.62v-0.34h5.574v0.34h-2.54l-9.164 28.572-10.33-28.572zM79.197 23.72l-0.048-21.61h-2.868v-0.324h10.564v0.324h-2.866l0.064 23.694c0.636 2.712 1.764 4.772 5.618 4.8 3.852 0.032 6.472-2.28 7.446-5.436v-23.060h-3.28v-0.31h26.85l0.056 10.372h-0.258c-0.498-6.698-3.082-9.228-7.602-9.966-1.556-0.256-3.186-0.066-5.25-0.082v13.24c1.796 0.138 3.71 0.024 5-1.084 1.172-1.006 1.504-3.334 1.59-4.28h0.226v11.528h-0.246c-0.070 0-0.164-2.892-1.57-4.264-1.416-1.38-3.22-1.72-5-1.392v14.142c2.516 0 4.52 0.214 6.264-0.264 5.294-1.452 7.158-5.918 7.142-10.398h0.296v10.998h-21.060v-0.336h2.38v-27.902h-5.146v23.060c-0.582 2.204-2.714 5.854-8.176 5.83-5.080-0.024-10.116-2.312-10.126-7.28z"></path>
</symbol>
<symbol id="brand-2" viewBox="0 0 149 32">
<path fill="#555" style="fill: var(--color1, #555)" d="M74.135 9.12l0.105-0.348h-4.779l-0.107 0.341c1.246 0.090 1.617 0.751 1.617 1.297-0.016 0.354-0.113 0.699-0.284 1.009l-5.293 10.148-0.8-11.004c-0.085-1.139 0.533-1.44 1.762-1.451l0.107-0.352h-5.045l-0.107 0.346c1.252 0.102 1.632 0.538 1.632 1.047-0.013 0.301-0.097 0.594-0.245 0.855l-5.163 10.511-0.802-10.923c-0.064-1.25 0.563-1.434 1.719-1.478l0.102-0.348h-5.152l-0.109 0.348c1.453 0.085 1.899 0.503 2.001 1.841l1.022 12.595h0.625l6.214-12.61 1.015 12.61h0.597l6.338-12.096c0.847-1.609 1.79-2.27 3.027-2.34zM42.172 9.12c0.804 0.058 1.314 0.224 1.519 0.525 0.205 0.303 0.205 0.749 0 1.466l-3.006 9.997c-0.35 1.131-1.199 1.749-2.462 1.828l-0.132 0.369h12.553l2.176-4.297-0.26-0.107c-1.786 2.833-4.405 4.013-8.992 4.013h-1.875l2.121-7.049h2.091c0.843 0 1.404 0.186 1.717 0.574 0.361 0.442 0.405 1.199 0.164 2.347h0.32l1.741-5.781h-0.329c-0.619 1.604-1.897 2.519-3.59 2.519h-2.010l1.933-6.404h1.954c2.462 0 4.009 1.082 4.557 3.142l0.26-0.038-0.465-3.45h-9.877l-0.107 0.346zM52.066 26.985c-0.627 0-1.033 0.277-1.033 0.708 0 0.378 0.348 0.606 0.683 0.606 0.153-0.005 0.302-0.045 0.437-0.115 0.114-0.058 0.239-0.093 0.367-0.1 0.553 0 0.951 0.578 0.951 1.378 0 1.826-1.719 3.151-4.087 3.151-4.87 0-9.645-4.041-14.592-12.352 2.027-6.558 6.101-17.523 10.65-17.523 0.625 0 1.239 0.134 1.807 0.39 0.35 0.169 0.732 0.262 1.118 0.277 0.986 0 1.248-0.612 1.248-0.981 0-0.811-0.802-1.357-1.997-1.357-6.637 0-10.675 10.586-13.148 18.598-2.332-4.079-5.434-10.524-7.083-18.039h-7.654c-1.971 0-5.297 0.427-5.297 3.236 0 0.61 0.242 1.195 0.674 1.626s1.016 0.674 1.626 0.674c1.286 0 1.971-0.849 1.971-1.461 0-0.384-0.213-0.794-0.685-0.794s-0.691 0.399-0.691 0.794c0.007 0.107-0.009 0.214-0.046 0.315s-0.095 0.192-0.169 0.27c-0.075 0.077-0.164 0.138-0.264 0.178s-0.206 0.060-0.313 0.056c-0.939 0-1.594-0.698-1.594-1.7 0-1.807 1.609-2.722 4.783-2.722h3.251c1.901 0 2.739 0.945 2.261 2.846-3.253 11.465-9.76 23.718-18.27 23.718-3.915 0-5.965-2.285-5.965-4.544 0-1.643 1.109-2.854 2.103-2.854 0.657 0 0.9 0.437 1.133 0.858 0.22 0.397 0.448 0.806 1.011 0.806 0.109 0.003 0.217-0.017 0.317-0.057s0.192-0.101 0.269-0.177c0.077-0.077 0.137-0.169 0.178-0.269s0.060-0.209 0.057-0.317c0-0.911-1.033-1.598-2.4-1.598-1.574 0-3.258 1.451-3.258 3.614 0 2.957 2.756 5.107 6.556 5.107 4.553 0 8.806-3.2 12.644-9.51 3.661-6.029 5.662-12.838 6.24-14.989 3.334 11.925 13.301 28.335 23.458 28.335 2.724 0 4.625-1.519 4.625-3.689-0.011-1.35-0.832-2.4-1.875-2.4v0.009zM103.337 8.444c-4.337 0-8.755 4.851-8.755 9.611 0 3.669 2.421 5.594 4.813 5.594 2.089 0 4.245-1.071 5.911-2.938 1.72-1.917 2.682-4.396 2.705-6.972 0.006-3.166-1.877-5.295-4.674-5.295zM99.369 23.223c-1.956 0-3.123-1.728-3.123-4.608 0-4.164 3.467-9.756 7.012-9.756 2.513 0 3.040 2.249 3.040 4.126 0 3.571-2.381 10.24-6.931 10.24l0.002-0.002zM102.534 2.089l0.128-0.454h-7.509l-0.128 0.452c1.969 0.102 2.528 0.958 2.528 1.702 0 0.439-0.177 0.941-0.529 1.51 0 0-9.69 15.189-10.458 16.38l-4.026-17.118c-0.065-0.269-0.101-0.545-0.107-0.821 0-1.173 0.905-1.581 2.647-1.643l0.128-0.457h-7.701l-0.128 0.454c1.641 0.064 2.607 0.503 3.119 2.603 0.917 3.776 4.478 18.793 4.582 19.23-3.725 5.446-6.867 8.602-11.887 8.602-3.661 0-6.421-2.532-6.421-5.888 0-3.354 2.677-6.076 5.967-6.076 2.044 0 3.147 1.045 3.147 2.025 0.005 0.201-0.043 0.4-0.138 0.578s-0.235 0.327-0.406 0.434c-0.273 0.175-0.527 0.395-0.527 0.811 0 0.094 0.020 0.187 0.058 0.274s0.093 0.164 0.162 0.228 0.15 0.113 0.239 0.145c0.089 0.031 0.183 0.044 0.277 0.038 0.706 0 1.088-0.849 1.088-1.643 0-2.059-1.493-3.339-3.9-3.339-4.034 0-6.532 3.447-6.532 6.637 0 3.104 2.613 6.315 6.987 6.315 6.385 0 9.749-5.060 13.312-10.417 0 0 10.246-15.949 11.33-17.57 1.274-1.871 2.893-2.918 4.698-2.991zM146.31 23.887c-1.060 0-1.621 0.725-1.621 1.246-0.002 0.134 0.048 0.263 0.14 0.361s0.217 0.156 0.351 0.164c0.132 0.005 0.263-0.030 0.375-0.101s0.2-0.174 0.252-0.296c0.092-0.164 0.227-0.301 0.389-0.396s0.348-0.145 0.537-0.144c0.843 0 1.41 0.572 1.41 1.521 0 1.707-1.788 3.093-3.981 3.093-5.527 0-10.308-4.885-14.615-14.931l5.069-3.868c1.664-1.231 2.475-1.363 3.138-1.412l0.107-0.35h-4.905l-0.102 0.346c0.819 0.047 1.301 0.352 1.301 0.768 0 0.329-0.282 0.719-0.823 1.152l-6.997 5.269 1.542-5.056 0.034-0.092c0.431-1.252 0.704-1.956 2.507-2.042l0.102-0.348h-5.555l-0.107 0.348c0.804 0.036 1.295 0.203 1.502 0.491 0.207 0.29 0.198 0.804-0.064 1.707l-2.891 9.675c-0.375 1.205-1.148 1.926-2.050 1.926-0.821 0-1.38-0.501-2.027-1.854l-2.5-5.099c2.255-0.427 4.862-1.809 4.862-4.348 0-1.777-1.237-2.944-4.269-2.935l-2.586 0.047c-1.269 0.032-2.607 0.064-3.588 0.034l-0.111 0.354c1.459 0.094 2.007 0.459 1.466 2.202l-2.923 9.679c-0.38 1.216-1.205 1.856-2.483 1.929l-0.137 0.375h5.85l0.102-0.375c-1.094-0.051-1.916-0.224-1.916-1.193 0.006-0.26 0.051-0.518 0.132-0.768l1.438-4.796h2.656l0.021 0.038c1.158 2.321 2.603 5.21 3.447 7.070l0.013 0.021h7.859l0.102-0.375c-1.084-0.023-1.941-0.256-1.941-1.201 0.009-0.256 0.051-0.512 0.13-0.755l1.203-4.011 2.025-1.574c2.679 5.408 7.159 14.4 15.887 14.4 2.502 0 4.463-1.559 4.463-3.552-0.004-1.525-1.137-2.347-2.219-2.347l-0.002 0.002zM114.729 15.787h-1.954l2.039-6.669c0.329-0.030 1.314-0.079 2.135-0.079 2.603 0 3.151 1.303 3.151 2.4 0.004 1.98-0.928 4.348-5.372 4.348z"></path>
</symbol>
<symbol id="brand-3" viewBox="0 0 245 32">
<path fill="#555" style="fill: var(--color1, #555)" d="M242.771 23.498c-0.71 0-1.301 0.593-1.301 1.39s0.591 1.389 1.301 1.389 1.301-0.593 1.301-1.389c0-0.799-0.591-1.39-1.301-1.39zM195.685 26.19h5.975v-0.532l-0.651-0.149c-0.591-0.148-0.859-0.473-0.859-1.301v-8.045h1.391c0.857 0 1.301 0.207 1.36 2.012l0.147 3.785c0.118 3.402 1.094 4.349 2.752 4.349 1.684 0 2.128-1.154 2.128-2.781v-0.679h-0.622v0.502c0 1.096-0.147 1.865-0.561 1.865-0.385 0-0.415-0.296-0.503-1.657l-0.178-2.602c-0.236-3.491-0.679-4.704-3.253-5.177 2.455-0.651 3.963-2.455 3.963-5.028 0-3.342-2.633-4.94-5.147-4.94h-10.085v0.532l0.562 0.119c1.064 0.237 1.094 0.799 1.094 3.195v11.77c0 2.633-0.74 3.905-2.427 3.905-1.506 0-2.335-0.739-2.335-3.608v-13.989c0-0.827 0.265-1.064 0.915-1.213l0.799-0.178v-0.532h-6.182v0.532l0.65 0.179c0.591 0.176 0.798 0.413 0.798 1.24v13.755c0 3.104 1.805 4.82 4.557 4.82 2.75 0 4.11-1.716 4.11-4.909v-12.837c0-1.596 0.325-2.158 1.626-2.158 1.035 0 1.48 0.354 1.48 1.33v16.446c0 0.827-0.266 1.123-0.859 1.272l-0.651 0.178v0.532zM235.377 7.762c0-0.827 0.267-1.093 0.858-1.213l0.798-0.176v-0.562h-6.15v0.532l0.651 0.179c0.591 0.176 0.858 0.413 0.858 1.24v16.564c0 0.8-0.326 1.242-1.244 1.242-1.065 0-1.212-0.354-1.596-2.099l-3.787-17.718h-1.182l-3.61 17.155c-0.414 1.921-0.621 2.366-1.419 2.602l-0.503 0.149v0.532h4.228v-0.532l-0.619-0.118c-0.89-0.179-1.124-0.651-0.681-2.899l2.129-10.974 2.336 11.624c0.354 1.686 0.326 2.011-0.947 2.247l-0.621 0.12v0.532h15.676v-6.744h-0.561c-0.294 3.105-0.917 6.034-3.43 6.034h-1.184v-17.718zM226.148 20.688v-0.798h-3.991l-0.117 0.799 4.109-0.001zM209.646 8.118v14.138c0 2.13 0 3.134-1.065 3.312l-0.532 0.090v0.532h4.347v-0.532c-1.892-0.267-1.892-0.918-1.892-3.225v-13.427l-0.71-0.651 7.248 17.835h1.242v-16.447c0-2.426 0-2.958 1.182-3.283l0.414-0.119v-0.531h-4.465v0.532l0.501 0.119c1.508 0.266 1.508 0.859 1.508 3.107v10.292l0.297-0.088-5.501-13.961h-4.23v0.532l0.413 0.119c0.474 0.149 0.74 0.681 1.243 1.657zM200.151 6.52h1.184c1.183 0 2.277 0.769 2.277 4.614 0 3.934-0.828 4.318-2.484 4.318h-0.977v-8.933zM180.454 15.809c0 8.547-0.71 9.759-2.248 9.759s-2.219-1.213-2.219-9.702c0-8.221 0.74-9.405 2.219-9.405 1.538 0 2.248 1.184 2.248 9.347zM183.677 15.985c0-5.648-1.804-10.322-5.472-10.322-3.698 0-5.443 4.672-5.443 10.323 0 5.679 1.804 10.351 5.443 10.351 3.756 0 5.472-4.674 5.472-10.352zM171.018 7.762c0-0.827 0.207-1.093 0.798-1.24l0.65-0.179v-0.532h-6.121v0.532l0.739 0.179c0.591 0.147 0.916 0.354 0.916 1.213v14.225c0 1.982-0.178 3.58-1.655 3.58-0.947 0-1.657-0.74-1.628-1.272 0.088-0.918 1.628-0.857 1.745-2.338 0.090-1.064-0.591-1.508-1.213-1.596-0.916-0.119-2.040 0.651-2.070 2.189-0.030 1.981 1.272 3.786 3.49 3.786 2.456 0 4.349-1.657 4.349-4.823v-13.724zM72.231 7.762c0-0.827 0.266-1.093 0.857-1.213l0.799-0.176v-0.562h-6.153v0.532l0.65 0.179c0.593 0.176 0.859 0.413 0.859 1.24v16.564c0 0.8-0.327 1.242-1.243 1.242-1.064 0-1.242-0.354-1.626-2.099l-3.788-17.718h-1.182l-3.608 17.155c-0.413 1.921-0.622 2.366-1.42 2.602l-0.503 0.149v0.532h4.23v-0.532l-0.622-0.118c-0.887-0.179-1.125-0.651-0.681-2.899l2.129-11.033 2.338 11.684c0.325 1.686 0.325 2.011-0.947 2.247l-0.62 0.12v0.532h15.704v-6.744h-0.561c-0.296 3.105-0.918 6.034-3.432 6.034h-1.183v-17.718h0.001zM154.572 6.522h0.652c1.834 0 2.455 2.927 2.662 6.033h0.562v-6.744h-10.737v6.744h0.562c0.207-3.105 0.828-6.034 2.661-6.034h0.651v17.688c0 0.827-0.266 1.123-0.857 1.272l-0.769 0.178v0.532h6.388v-0.532l-0.916-0.207c-0.562-0.149-0.859-0.327-0.859-1.243v-17.686zM141.057 15.956l0.916 0.029c1.331 0.030 1.715 0.533 1.982 3.757h0.561v-8.223h-0.561c-0.325 2.573-0.681 3.666-1.953 3.697l-0.946 0.030v-8.725h2.040c2.278 0 2.781 2.867 3.107 6.033h0.561v-6.744h-10.203v0.532l0.65 0.179c0.68 0.176 0.857 0.591 0.857 1.271v16.415c0 0.827-0.265 1.123-0.857 1.272l-0.65 0.178v0.532h10.5v-6.744h-0.562c-0.354 3.076-0.739 6.034-3.402 6.034h-2.040v-9.524zM129.907 15.956l0.916 0.029c1.33 0.030 1.715 0.533 1.982 3.757h0.561v-8.223h-0.561c-0.325 2.573-0.681 3.666-1.952 3.697l-0.948 0.030v-8.725h2.041c2.278 0 2.78 2.927 3.105 6.033h0.562v-6.744h-10.5v0.532l0.947 0.179c0.679 0.176 0.857 0.591 0.857 1.271v16.415c0 0.827-0.266 1.123-0.857 1.272l-0.651 0.178v0.532h10.5v-6.744h-0.564c-0.354 3.076-0.74 6.034-3.402 6.034h-2.040l0.001-9.524zM117.75 6.52h0.887c1.183 0 2.277 0.769 2.277 4.614 0 3.874-0.827 4.318-2.485 4.318h-0.679v-8.933zM113.285 26.188h5.974v-0.531l-0.651-0.149c-0.593-0.148-0.857-0.473-0.857-1.301v-8.045h1.094c0.857 0 1.301 0.356 1.36 2.012l0.147 3.785c0.119 3.402 1.094 4.349 2.751 4.349 1.686 0 2.13-1.154 2.13-2.781v-0.679h-0.62v0.502c0 1.096-0.149 1.865-0.562 1.865-0.386 0-0.415-0.296-0.503-1.657l-0.179-2.602c-0.234-3.579-0.708-4.704-3.253-5.177 2.456-0.651 3.964-2.455 3.964-5.028 0-3.342-2.633-4.94-5.146-4.94h-5.65v0.532l0.65 0.179c0.593 0.176 0.859 0.413 0.859 1.24v16.446c0 0.827-0.266 1.123-0.859 1.272l-0.65 0.178v0.532l0.001-0.001zM108.757 6.522h0.65c1.833 0 2.455 2.929 2.663 6.034h0.561v-6.745h-10.737v6.744h0.562c0.207-3.105 0.828-6.034 2.663-6.034h0.65v17.688c0 0.827-0.267 1.123-0.857 1.272l-0.771 0.178v0.532h6.241v-0.532l-0.769-0.179c-0.768-0.176-0.857-0.768-0.857-1.271v-17.686zM101.925 20.897c0-6.064-6.654-7.662-6.654-12.068 0-0.947 0.354-2.367 1.833-2.367 2.13 0 2.929 2.751 3.283 6.093h0.562v-6.745h-0.356c-0.147 0.651-0.413 0.947-0.798 0.947-0.681 0-1.035-1.065-2.661-1.065-2.514 0-4.231 2.101-4.231 4.852 0 4.998 6.657 7.098 6.657 11.713 0 2.099-0.977 3.283-2.309 3.283-1.981 0-3.283-2.336-3.637-6.093h-0.562v6.744h0.356c0.295-0.976 0.679-1.065 1.006-1.065 0.561 0 1.152 1.184 2.867 1.184 2.633 0 4.645-2.278 4.645-5.414v0.003zM82.553 7.761c0-0.827 0.266-1.093 0.857-1.213l0.799-0.176v-0.561h-6.153v0.532l0.65 0.179c0.593 0.176 0.859 0.413 0.859 1.24v16.446c0 0.827-0.266 1.123-0.859 1.272l-0.65 0.178v0.532h9.673v-6.744h-0.562c-0.296 3.105-0.917 6.034-3.432 6.034h-1.183v-17.719zM62.973 20.688v-0.798h-3.993l-0.119 0.799 4.111-0.001zM45.879 26.249h1.213l2.75-14.552h-0.413l3.016 14.552h1.065l3.608-17.155c0.386-1.804 0.593-2.426 1.301-2.602l0.562-0.149v-0.532h-4.171v0.532l0.622 0.119c0.888 0.178 1.094 0.71 0.681 2.899l-2.337 11.506h0.355l-2.367-12.126c-0.237-1.154-0.384-2.1 0.593-2.278l0.649-0.119v-0.532h-5.707v0.532l0.384 0.090c0.591 0.147 0.679 0.503 0.917 1.626l0.916 4.408-0.178-2.663-2.040 10.766h0.266l-2.396-11.83c-0.267-1.213-0.356-2.129 0.591-2.307l0.444-0.090v-0.532h-5.827v0.532l0.562 0.149c0.532 0.147 0.827 0.413 1.183 2.040l3.757 17.718zM30.084 15.956l0.918 0.029c1.33 0.030 1.715 0.533 1.981 3.757h0.562v-8.223h-0.562c-0.325 2.573-0.679 3.666-1.952 3.697l-0.947 0.030v-8.725h2.041c2.277 0 2.78 2.927 3.105 6.033h0.562v-6.744h-10.203v0.532l0.65 0.179c0.679 0.176 0.857 0.591 0.857 1.271v16.415c0 0.827-0.266 1.123-0.857 1.272l-0.65 0.178v0.532h10.5v-6.744h-0.562c-0.356 3.076-0.74 6.034-3.402 6.034h-2.040l-0.001-9.524zM11.481 26.19h6.064v-0.532l-0.681-0.149c-0.532-0.119-0.888-0.473-0.888-1.301v-8.074h4.466v8.074c0 0.827-0.354 1.183-0.886 1.301l-0.681 0.149v0.532h6.064v-0.532l-0.652-0.179c-0.591-0.148-0.857-0.473-0.857-1.301v-16.414c0-0.827 0.266-1.093 0.857-1.24l0.65-0.179v-0.533h-6.063v0.532l0.681 0.179c0.502 0.147 0.886 0.354 0.886 1.213v7.6h-4.466v-7.601c0-0.827 0.325-1.064 0.888-1.213l0.681-0.178v-0.532h-6.064v0.532l0.651 0.179c0.593 0.176 0.859 0.413 0.859 1.24v16.446c0 0.827-0.266 1.123-0.859 1.272l-0.651 0.178v0.532zM6.955 6.522h0.651c1.833-0.001 2.456 2.926 2.663 6.033h0.561v-6.744h-10.737v6.744h0.562c0.207-3.105 0.828-6.034 2.663-6.034h0.651v17.688c0 0.827-0.266 1.123-0.859 1.272l-0.769 0.178v0.532h6.39v-0.532l-0.917-0.207c-0.562-0.149-0.859-0.327-0.859-1.243v-17.686z"></path>
</symbol>
<symbol id="brand-4" viewBox="0 0 245 32">
<path fill="#555" style="fill: var(--color1, #555)" d="M0.1 1.677v30.78h7.046v-12.096h11.115v-5.946h-11.249v-6.793h13.163v-5.946h-20.075zM180.71 32.457h6.912v-30.78h-6.912v30.78zM200.407 1.677l11.785 19.445v-19.445h6.601v30.78h-6.46l-12.181-19.447v19.447h-6.603v-30.78h6.859zM223.77 1.677v30.78h20.604v-5.946h-13.692v-6.927h11.292v-5.504h-11.292v-6.458h13.205v-5.946h-20.117zM35.823 7.012c4.48 0 6.697 3.936 6.697 10.054s-2.219 10.054-6.694 10.054c-4.476 0-6.694-3.936-6.694-10.054s2.217-10.054 6.692-10.054zM22.001 17.067c0 8.725 4.085 16 13.824 16 9.743 0 13.828-7.275 13.828-16s-4.085-16-13.828-16c-9.743 0-13.824 7.275-13.824 16zM90.101 7.622h1.502c6.347 0 9.131 2.398 9.131 9.444s-2.784 9.444-9.131 9.444h-1.502v-18.889zM83.189 32.454h7.648c10.466 0 16.896-4.448 16.896-15.388s-6.43-15.39-16.896-15.39h-7.646v30.78l-0.002-0.002zM144.094 1.679l5.065 20.689 5.946-20.691h5.355l5.719 20.689 4.885-20.689h6.607l-8.269 30.78h-5.905l-6.029-19.277-5.939 19.277h-6.131l-8.043-30.78 6.739 0.002zM66.377 7.014c4.478 0 6.694 3.936 6.694 10.054s-2.219 10.054-6.694 10.054c-4.476 0-6.694-3.938-6.694-10.057s2.219-10.054 6.692-10.054l0.002 0.002zM52.548 17.067c0 8.725 4.087 16 13.826 16 9.741 0 13.826-7.275 13.826-16s-4.083-16-13.824-16c-9.741 0-13.828 7.275-13.828 16zM121.929 31.23c2.692 0 4.719-1.25 5.589-2.123-1.979-1.721-3.886-3.522-5.717-5.399-0.823-0.887-2.85-3.153-3.563-4.196-1.361 0.934-2.517 2.532-2.517 5.067 0 3.959 2.786 6.652 6.208 6.652zM120.834 33.067c-6.159 0-8.25-4.245-8.25-6.999 0-3.706 2.818-6.383 5.003-7.569-1.25-1.711-1.566-3.008-1.583-4.435-0.015-2.502 2.377-5.828 7.253-5.828 1.583 0 2.976 0.318 3.831 0.73 0.461 0.205 0.476 0.427 0.476 0.806 0 0.998-0.19 3.375-0.286 3.849-0.079 0.476-0.19 0.54-0.348 0.54-0.175 0-0.205-0.128-0.205-0.602 0-0.823-0.207-1.854-0.949-2.677-0.666-0.745-1.76-1.408-3.343-1.408-1.615 0-3.706 1.045-3.706 3.878 0 2.724 2.219 5.020 5.131 8.22 1.077 1.203 4.973 4.781 5.781 5.478 0.759-1.045 1.566-3.136 1.566-5.067 0-0.476-0.126-1.077-0.602-1.506-0.412-0.395-1.075-0.491-1.551-0.491-0.192 0-0.38-0.064-0.38-0.237 0-0.205 0.252-0.269 0.506-0.269 0.762 0 2.027 0.032 3.802 0.222 0.538 0.064 0.823 0.284 0.823 0.634 0 2.5-1.521 5.574-3.121 7.488 2.108 1.76 3.516 2.615 4.388 3.121 1.013 0.602 2.692 1.173 3.578 1.173 0.286 0 0.444 0.030 0.444 0.252 0 0.16-0.254 0.254-0.745 0.254h-2.771c-2.976 0-3.925-0.284-7.031-2.709-0.885 0.841-3.198 3.153-7.712 3.153z"></path>
</symbol>
<symbol id="brand-5" viewBox="0 0 75 32">
<path fill="#555" style="fill: var(--color1, #555)" d="M0.862 3.109h0.226v-0.224l-0.226 0.224z"></path>
<path fill="#555" style="fill: var(--color1, #555)" d="M0.967 2.885v2.507h4.188v23.828h3.854v-23.828h3.961v-2.507h-12.002z"></path>
<path fill="#555" style="fill: var(--color1, #555)" d="M14.191 9.528v1.090c0 0 1.98-1.628 3.959-1.3v3.478h-1.209c0 0-2.645 0.107-2.538 1.853v14.465h-3.749v-19.585l3.538-0.002zM28.275 9.423h3.87l2.312 12.615 2.084-12.51h2.419l-3.748 19.691h-2.977l-3.96-19.796z"></path>
<path fill="#555" style="fill: var(--color1, #555)" d="M45.458 25.412v-4.344h3.854c0 0 0.998 8.046-5.396 8.272-6.499 0.222-5.728-11.647-5.728-11.647s-0.439-7.717 5.623-8.374c0 0 6.165-0.434 5.621 10.331h-7.269v5.985c0 0 0.227 2.286 1.769 2.286 1.526-0.119 1.526-2.508 1.526-2.508zM45.353 13.559c-0.108-2.823-1.648-2.823-1.648-2.823-1.647 0-1.647 2.82-1.647 2.82v4.465h3.188c0.107-0.119 0.212-1.642 0.107-4.465v0.003zM61.537 25.412v-4.344h3.854c0 0 0.998 8.046-5.394 8.272-6.499 0.222-5.728-11.647-5.728-11.647s-0.439-7.717 5.621-8.374c0 0 6.166-0.434 5.623 10.331h-7.269v5.985c0 0 0.227 2.286 1.769 2.286 1.419-0.119 1.524-2.508 1.524-2.508zM61.432 13.559c-0.105-2.822-1.647-2.822-1.647-2.822-1.648 0-1.648 2.82-1.648 2.82v4.465h3.19c0.105-0.119 0.105-1.642 0.105-4.465v0.002zM49.977 29.22h3.628v-26.649h-3.628v26.649zM69.579 9.304v1.090c0 0 1.979-1.628 3.959-1.3v3.48h-1.209c0 0-2.538 0.105-2.538 1.852v14.794h-3.747v-19.915h3.536zM18.377 15.409c0 0-0.771-5.985 5.168-6.090 0 0 5.062-0.329 5.062 6.090v13.81h-3.415v-1.090c0 0-1.314 1.3-3.415 1.3-2.084 0-3.083-1.419-3.309-1.957-0.666-1.090-0.877-5.225 0.226-6.956 0 0 0.771-1.195 2.54-2.389 0.877-0.537 1.435-0.987 1.874-1.195 0.227-0.103 0.439-0.329 0.544-0.432 0 0 1.209-0.866 1.316-1.194v-2.627c0 0-0.107-1.852-1.437-1.852s-1.542 1.955-1.542 1.955v2.613h-3.611v0.014zM23.439 26.83c1.316 0 1.542-1.747 1.542-1.747v-7.509c-0.226 0.224-0.771 0.537-1.435 0.866-0.666 0.432-1.316 0.761-1.542 0.985-0.332 0.432-0.439 0.985-0.439 0.985v4.792c0.107 0.103 0.439 1.626 1.874 1.626zM17.274 4.527c-0.227-0.761-0.666-0.987-0.998-0.987-0.998 0-1.21 1.419-1.21 2.062 0 0.985 0.332 1.955 1.103 1.955 0.107 0 0.877 0 1.209-0.985l0.998 0.329c-0.107 0.329-0.107 0.537-0.439 0.985-0.332 0.432-0.771 0.866-1.647 0.866-0.998 0-2.312-0.658-2.312-2.822-0.016-2.062 1.087-3.046 2.297-3.046 1.435 0 1.874 1.299 1.874 1.523l-0.876 0.119zM20.251 8.543c0.877 0 1.769-0.658 1.769-2.179 0-0.987-0.334-2.060-1.769-2.060-0.877 0-1.648 0.761-1.648 2.179-0.121 1.523 0.877 2.060 1.648 2.060zM20.251 7.781c-0.771 0-0.771-1.089-0.771-1.418 0-0.658 0.106-1.418 0.771-1.418s0.771 0.985 0.771 1.299c-0.121 0.343-0.121 1.537-0.771 1.537zM25.419 8.439h-0.998v-2.944c0-0.224 0-0.432-0.332-0.432s-0.544 0.224-0.877 0.537v2.82h-0.996v-4.12h0.998v0.539c0.226-0.224 0.664-0.658 1.314-0.658 0.544 0 0.877 1.090 0.877 1.090v3.165h0.014v0.003zM29.167 8.439v-5.87h-0.996v2.182c-0.439-0.537-0.877-0.537-0.998-0.537-0.877 0-1.435 0.985-1.435 2.060 0 1.194 0.544 2.060 1.435 2.060 0.544 0 0.877-0.434 0.998-0.537v0.432h0.996v0.21zM27.506 5.184c0.331 0 0.544 0.224 0.664 0.432v1.747c-0.107 0.105-0.334 0.434-0.666 0.434-0.664 0-0.771-0.866-0.771-1.195 0-0.448 0.002-1.418 0.772-1.418zM31.147 3.869l1.316-1.194h-1.104l-0.998 1.194h0.786zM30.483 6.587c0 0.985 0.544 1.089 0.769 1.089 0.439 0 0.666-0.329 0.771-0.537l0.771 0.329c-0.105 0.224-0.544 1.090-1.54 1.090-0.998 0-1.77-0.761-1.77-2.181 0-1.194 0.772-2.060 1.77-2.060 0.876 0 1.314 0.537 1.54 1.090 0.107 0.432 0.107 0.761 0.107 1.194h-2.417v-0.014zM32.023 5.945c0-0.761-0.544-0.985-0.771-0.985-0.332 0-0.769 0.224-0.769 0.987l1.54-0.002zM36.104 2.675l2.206 3.807v-3.807h0.998v5.762h-0.998l-2.206-4.029v4.029h-0.998v-5.762h0.998zM42.935 8.334c-0.105-0.224-0.105-0.537-0.105-0.761v-1.852c0-1.090-0.877-1.299-1.437-1.299-0.544 0-1.103 0.224-1.542 0.761l0.545 0.537c0.226-0.329 0.544-0.537 0.877-0.537 0.331 0 0.664 0.224 0.664 0.658v0.103c-1.104 0.105-2.207 0.537-2.207 1.523 0 0.658 0.545 1.090 1.209 1.090 0.544 0 0.877-0.329 1.103-0.434 0 0.105 0 0.224 0.107 0.434h0.771l0.014-0.224zM40.624 7.242c0-0.658 0.998-0.866 1.316-0.866v0.987c-0.107 0.103-0.545 0.432-0.877 0.432-0.227-0.121-0.439-0.224-0.439-0.553zM45.581 5.287c-0.439-0.329-0.664-0.329-0.877-0.329-0.331 0-0.544 0.224-0.544 0.432 0 0.329 0.334 0.434 0.771 0.539 0.545 0.103 1.437 0.329 1.437 1.194 0 0.537-0.439 1.299-1.648 1.299-0.876 0-1.314-0.432-1.54-0.761l0.544-0.432c0.128 0.136 0.283 0.244 0.454 0.318s0.356 0.113 0.542 0.114c0.334 0 0.666-0.105 0.666-0.432 0-0.329-0.332-0.434-0.771-0.537-0.439-0.105-1.435-0.329-1.435-1.3 0-0.656 0.664-1.299 1.435-1.299 0.664 0 1.209 0.329 1.435 0.537l-0.468 0.658zM47.893 3.003v1.299h0.666v0.761h-0.666v2.179c0 0.329 0.332 0.329 0.666 0.432v0.866c-0.545 0-0.877 0-1.209-0.224s-0.439-0.658-0.439-1.089v-2.164h-0.559v-0.761h0.545v-1.3h0.996z"></path>
</symbol>
<symbol id="brand-6" viewBox="0 0 75 32">
<path fill="#555" style="fill: var(--color1, #555)" d="M17.755 13.584l1.264-0.658v-10.029h-0.96l-2.35 3.131h-0.253l0.128-3.486h10.23l0.152 3.488h-0.278l-2.325-3.134h-0.984v10.003l1.264 0.682v0.33h-5.862v-0.33h-0.026v0.003zM27.102 13.128v-11.090l-0.96-0.379v-0.227l3.587-0.632h0.379v5.254l0.077-0.101c0.862-0.729 1.953-1.131 3.082-1.136 1.566 0 2.274 0.883 2.274 2.525v5.811l0.834 0.429v0.33h-4.674v-0.33l0.859-0.454v-5.784c0-0.909-0.405-1.262-1.163-1.262-0.446-0.009-0.882 0.134-1.237 0.405v6.666l0.832 0.454v0.304h-4.672v-0.304l0.782-0.478zM39.33 9.742c0.102 1.819 0.91 3.235 2.88 3.235 0.936 0 1.592-0.43 2.224-0.758v0.379c-0.42 0.5-0.947 0.9-1.542 1.171s-1.242 0.406-1.895 0.395c-3.030 0-4.547-1.667-4.547-4.573 0-2.854 1.669-4.624 4.397-4.624 2.576 0 3.915 1.264 3.915 4.65v0.101l-5.432 0.024zM39.28 9.314l2.653-0.176c0-2.275-0.379-3.79-1.163-3.79-0.832 0-1.49 1.768-1.49 3.941v0.026zM0.88 18.358c0-4.826 3.208-6.57 6.77-6.57 1.517 0 2.931 0.253 3.739 0.582l0.077 3.384h-0.354l-2.098-3.283c-0.418-0.162-0.866-0.232-1.314-0.203-1.894 0-2.854 2.198-2.829 5.786 0.024 4.294 0.757 6.24 2.525 6.24 0.354 0.010 0.706-0.050 1.037-0.176v-4.598l-1.136-0.656v-0.405h5.557v0.429l-1.136 0.632v4.547c-1.355 0.478-2.783 0.717-4.219 0.707-4.043 0-6.619-1.894-6.619-6.416zM12.779 16.085v-0.253l3.763-0.656 0.405 0.024v7.326c0 0.909 0.429 1.162 1.136 1.162 0.231 0.006 0.46-0.041 0.671-0.137s0.396-0.239 0.542-0.418v-6.568l-1.010-0.456v-0.301l3.712-0.632 0.355 0.051v8.413l1.010 0.403v0.278l-3.688 0.454-0.352-0.026v-1.11h-0.102c-0.758 0.719-1.76 1.124-2.805 1.136-1.792 0-2.653-1.061-2.653-2.653v-5.557l-0.984-0.482zM36.651 15.149l0.304 0.026v2.73h0.101c0.405-1.997 1.264-2.73 2.35-2.73 0.155-0.004 0.309 0.022 0.454 0.077v2.778c-0.249-0.055-0.504-0.081-0.758-0.075-0.695-0.016-1.385 0.122-2.021 0.405v5.355l0.859 0.48v0.328h-4.875v-0.328l0.883-0.48v-7.326l-1.010-0.304v-0.251l3.712-0.683zM46.026 15.378v-2.856l-1.011-0.379v-0.227l3.789-0.682 0.33 0.051v12.328l1.061 0.379v0.277l-3.739 0.506-0.278-0.026v-1.010h-0.101c-0.317 0.336-0.702 0.601-1.128 0.78s-0.885 0.265-1.347 0.256c-2.021 0-3.512-1.541-3.512-4.723 0-3.336 1.744-4.978 4.346-4.978 0.546-0.016 1.090 0.086 1.592 0.304zM46.026 15.933c-0.139-0.118-0.3-0.208-0.473-0.265s-0.356-0.078-0.538-0.063c-1.011 0.024-1.642 1.566-1.642 4.269 0 2.426 0.454 3.79 1.768 3.739 0.325 0.003 0.64-0.112 0.885-0.328v-7.352zM54.31 15.174h0.33v8.59l0.859 0.454v0.304h-4.851v-0.33l0.859-0.48v-7.174l-1.011-0.43v-0.277l3.814-0.658zM54.666 12.851c-0.003 0.214-0.049 0.426-0.135 0.623s-0.21 0.374-0.365 0.522c-0.155 0.148-0.338 0.264-0.539 0.34s-0.414 0.112-0.628 0.106c-0.422 0-0.827-0.168-1.126-0.466s-0.466-0.704-0.466-1.126c0-0.422 0.168-0.827 0.466-1.126s0.704-0.466 1.126-0.466c0.432-0.007 0.848 0.156 1.161 0.455s0.494 0.707 0.507 1.139zM66.362 23.739v-7.301l-1.011-0.354v-0.354l3.715-0.709 0.378 0.051v1.086h0.102c0.879-0.757 1.997-1.177 3.157-1.187 1.616 0 2.35 0.758 2.35 2.475v6.266l0.858 0.48v0.328h-4.85v-0.328l0.885-0.48v-6.064c0-0.96-0.405-1.338-1.187-1.338-0.458-0.004-0.903 0.147-1.264 0.429v6.973l0.834 0.48v0.328h-4.824v-0.328l0.858-0.454zM60.981 19.192v-1.238c0-1.845-0.379-2.426-1.515-2.426-0.135-0.009-0.27-0.009-0.405 0l-2.021 2.779h-0.278v-2.526c1.098-0.382 2.249-0.587 3.411-0.606 2.475 0 3.915 0.683 3.915 2.779v5.936l0.885 0.254v0.227c-0.563 0.284-1.189 0.422-1.819 0.403-1.238 0-1.819-0.403-2.096-1.061h-0.077c-0.506 0.707-1.264 1.086-2.426 1.086-1.466 0-2.475-0.909-2.475-2.501 0-1.515 0.96-2.374 2.906-2.728l1.995-0.379zM60.981 23.285v-3.69l-0.606 0.051c-0.986 0.075-1.314 0.682-1.314 2.072 0 1.49 0.48 1.869 1.162 1.869 0.143 0.009 0.287-0.016 0.418-0.073s0.248-0.144 0.34-0.255v0.026zM28.594 19.141v-1.187c0-1.845-0.405-2.451-1.541-2.451-0.128 0.010-0.254 0.026-0.379 0.051l-2.048 2.704h-0.251v-2.53c1.091-0.371 2.233-0.567 3.386-0.581 2.475 0 3.915 0.683 3.915 2.779v5.936l0.885 0.254v0.227c-0.563 0.284-1.189 0.422-1.819 0.403-1.238 0-1.819-0.403-2.096-1.061h-0.077c-0.506 0.707-1.264 1.088-2.4 1.088-1.49 0-2.475-0.912-2.475-2.502 0-1.515 0.934-2.374 2.88-2.728l2.021-0.403zM28.594 23.259v-3.664l-0.632 0.051c-0.96 0.075-1.312 0.682-1.312 2.072 0 1.49 0.504 1.869 1.16 1.869 0.143 0.009 0.287-0.016 0.418-0.073s0.248-0.144 0.34-0.255z"></path>
</symbol>
</defs>
</svg>
